<svg xmlns:xlink="http://www.w3.org/1999/xlink" width="221" xmlns="http://www.w3.org/2000/svg" height="122" id="screenshot-1bde80e2-6dfe-8018-8002-6f394c15c2f4" viewBox="-1 -1 221 122" style="-webkit-print-color-adjust: exact;" fill="none" version="1.1"><g id="shape-1bde80e2-6dfe-8018-8002-6f394c15c2f4" rx="0" ry="0"><g id="shape-1bde80e2-6dfe-8018-8002-6f394c15c2f5"><g id="fills-1bde80e2-6dfe-8018-8002-6f394c15c2f5"><path rx="0" ry="0" d="M98,48L102.882,31.604C102.882,31.604,109.435,23.495,115.902,31.604C115.926,31.634,116.276,33.168,116.75,35.286C117.832,40.121,119.564,48,119.564,48M115.902,31.604C115.902,31.604,122.125,32.385,121.998,35.286C121.985,35.59,116.75,35.286,116.75,35.286" style="fill: rgb(0, 0, 0); fill-opacity: 1;"/></g><g id="strokes-1bde80e2-6dfe-8018-8002-6f394c15c2f5"><g class="stroke-shape"><path rx="0" ry="0" d="M98,48L102.882,31.604C102.882,31.604,109.435,23.495,115.902,31.604C115.926,31.634,116.276,33.168,116.75,35.286C117.832,40.121,119.564,48,119.564,48M115.902,31.604C115.902,31.604,122.125,32.385,121.998,35.286C121.985,35.59,116.75,35.286,116.75,35.286" style="fill: none; stroke-width: 2; stroke: rgb(239, 237, 255); stroke-opacity: 1;"/></g></g></g><g id="shape-1bde80e2-6dfe-8018-8002-6f394c15c2f6"><g id="fills-1bde80e2-6dfe-8018-8002-6f394c15c2f6"><path rx="0" ry="0" d="M109.5,48.45C94.207,45.682,81.053,40.292,74.324,27.802C43.621,20.99,31.162,15.694,0,0C0,0,5.999,32.565,11.843,35.894C17.687,39.223,31.046,42.552,36.055,42.552L16.017,44.217C16.017,44.217,33.602,67.666,43.621,71.828C43.621,71.828,58.597,69.183,58.597,69.183L51.918,76.674C51.918,76.674,107.717,93.241,109.458,118.779C109.486,119.184,109.5,119.591,109.5,120C109.5,119.591,109.514,119.184,109.542,118.779C111.283,93.241,167.082,76.674,167.082,76.674L160.403,69.183C160.403,69.183,175.379,71.828,175.379,71.828C185.398,67.666,202.983,44.217,202.983,44.217L182.945,42.552C187.954,42.552,201.313,39.223,207.157,35.894C213.001,32.565,219,0,219,0C187.838,15.694,175.379,20.99,144.676,27.802C137.947,40.292,124.793,45.682,109.5,48.45Z" style="fill: rgb(0, 0, 0); fill-opacity: 1;"/></g><g id="strokes-1bde80e2-6dfe-8018-8002-6f394c15c2f6"><g class="stroke-shape"><path rx="0" ry="0" d="M109.5,48.45C94.207,45.682,81.053,40.292,74.324,27.802C43.621,20.99,31.162,15.694,0,0C0,0,5.999,32.565,11.843,35.894C17.687,39.223,31.046,42.552,36.055,42.552L16.017,44.217C16.017,44.217,33.602,67.666,43.621,71.828C43.621,71.828,58.597,69.183,58.597,69.183L51.918,76.674C51.918,76.674,107.717,93.241,109.458,118.779C109.486,119.184,109.5,119.591,109.5,120C109.5,119.591,109.514,119.184,109.542,118.779C111.283,93.241,167.082,76.674,167.082,76.674L160.403,69.183C160.403,69.183,175.379,71.828,175.379,71.828C185.398,67.666,202.983,44.217,202.983,44.217L182.945,42.552C187.954,42.552,201.313,39.223,207.157,35.894C213.001,32.565,219,0,219,0C187.838,15.694,175.379,20.99,144.676,27.802C137.947,40.292,124.793,45.682,109.5,48.45Z" style="fill: none; stroke-width: 2; stroke: rgb(239, 237, 255); stroke-opacity: 1;"/></g></g></g></g></svg>