<svg xmlns:xlink="http://www.w3.org/1999/xlink" width="165" xmlns="http://www.w3.org/2000/svg" height="165" id="screenshot-1bde80e2-6dfe-8018-8002-6f38e07aa77d" viewBox="0 0 165 165" style="-webkit-print-color-adjust: exact;" fill="none" version="1.1"><g id="shape-1bde80e2-6dfe-8018-8002-6f38e07aa77d" rx="0" ry="0"><g id="shape-80b03806-91ff-8064-8002-6f2ce30a68e4"><g id="fills-80b03806-91ff-8064-8002-6f2ce30a68e4"><rect rx="10" ry="10" x="0" y="0" transform="matrix(1,0,0,1,0.000001,-0.000001)" width="165" height="165" style="fill: rgb(229, 56, 59); fill-opacity: 1;"/></g></g><g xmlns:xlink="http://www.w3.org/1999/xlink" width="2214" xml:space="preserve" height="2048" id="shape-80b03806-91ff-8064-8002-6f187e77d681" style="fill-rule: evenodd; clip-rule: evenodd; stroke-linejoin: round; stroke-miterlimit: 2; fill: rgb(0, 0, 0);" ry="0" rx="0" version="1.1"><g id="shape-80b03806-91ff-8064-8002-6f187e78b1b4" rx="0" ry="0" style="fill: rgb(0, 0, 0);"><g id="shape-80b03806-91ff-8064-8002-6f187e78f1fc" rx="0" ry="0" style="fill: rgb(0, 0, 0);"><g id="shape-80b03806-91ff-8064-8002-6f187e79474f" rx="0" ry="0" style="fill: rgb(0, 0, 0);"><g id="shape-80b03806-91ff-8064-8002-6f187e7a3640"><g id="fills-80b03806-91ff-8064-8002-6f187e7a3640"><path rx="0" ry="0" d="M74.306,36.068C78.631,50.726,74.389,64.817,64.833,67.541C55.277,70.264,44.02,60.588,39.694,45.931C35.369,31.272,39.611,17.181,49.164,14.459C58.723,11.734,69.981,21.41,74.306,36.068Z" style="fill-rule: nonzero;"/></g></g></g><g id="shape-80b03806-91ff-8064-8002-6f187e7b2f93" rx="0" ry="0" style="fill: rgb(0, 0, 0);"><g id="shape-80b03806-91ff-8064-8002-6f187e7c266b"><g id="fills-80b03806-91ff-8064-8002-6f187e7c266b"><path rx="0" ry="0" d="M41.305,78.585C48.21,90.402,47.405,103.751,39.504,108.397C31.604,113.047,19.597,107.236,12.696,95.416C5.787,83.6,6.596,70.25,14.5,65.602C22.398,60.953,34.4,66.766,41.305,78.585Z" style="fill-rule: nonzero;"/></g></g></g><g id="shape-80b03806-91ff-8064-8002-6f187e7c9f5b" rx="0" ry="0" style="fill: rgb(0, 0, 0);"><g id="shape-80b03806-91ff-8064-8002-6f187e7d632b"><g id="fills-80b03806-91ff-8064-8002-6f187e7d632b"><path rx="0" ry="0" d="M84.5,83C104.099,83,140.482,125.766,128.703,143.083C116.923,160.401,96.539,143.909,84.5,143.909C72.461,143.909,52.077,160.401,40.297,143.083C28.518,125.766,64.901,83,84.5,83Z" style="fill-rule: nonzero;"/></g></g></g><g id="shape-80b03806-91ff-8064-8002-6f187e7db426" rx="0" ry="0" style="fill: rgb(0, 0, 0);"><g id="shape-80b03806-91ff-8064-8002-6f187e7e287a"><g id="fills-80b03806-91ff-8064-8002-6f187e7e287a"><path rx="0" ry="0" d="M87.694,36.068C83.369,50.727,87.611,64.818,97.167,67.541C106.724,70.264,117.981,60.588,122.306,45.931C126.631,31.272,122.389,17.181,112.836,14.459C103.276,11.734,92.019,21.41,87.694,36.068Z" style="fill-rule: nonzero;"/></g></g></g><g id="shape-80b03806-91ff-8064-8002-6f187e7f2b6b" rx="0" ry="0" style="fill: rgb(0, 0, 0);"><g id="shape-80b03806-91ff-8064-8002-6f187e7fc189"><g id="fills-80b03806-91ff-8064-8002-6f187e7fc189"><path rx="0" ry="0" d="M124.28,66.202C115.758,76.621,114.54,89.679,121.569,95.366C128.594,101.056,141.202,97.222,149.72,86.798C158.245,76.38,159.459,63.32,152.428,57.632C145.406,51.944,132.801,55.78,124.28,66.202Z" style="fill-rule: nonzero;"/></g></g></g></g></g></g></g></svg>