<svg width="81" height="34" viewBox="0 0 81 34" fill="none" xmlns="http://www.w3.org/2000/svg">
<path d="M37.6875 22.8125C37.6875 23.9375 37.4896 25.1562 37.0938 26.4688C36.6979 27.7604 36.0521 28.9688 35.1562 30.0938C34.2812 31.1979 33.125 32.125 31.6875 32.875C30.2708 33.625 28.5417 34 26.5 34H11.8438C10.7188 34 9.5 33.8021 8.1875 33.4062C6.89583 33.0104 5.6875 32.375 4.5625 31.5C3.45833 30.6042 2.53125 29.4479 1.78125 28.0312C1.03125 26.5938 0.65625 24.8542 0.65625 22.8125C0.65625 21.6875 0.854167 20.4688 1.25 19.1562C1.64583 17.8438 2.28125 16.6354 3.15625 15.5312C4.05208 14.4062 5.20833 13.4688 6.625 12.7188C8.0625 11.9688 9.80208 11.5938 11.8438 11.5938H26.5V19.3438H11.8438C10.7396 19.3438 9.88542 19.6875 9.28125 20.375C8.67708 21.0417 8.375 21.875 8.375 22.875C8.375 23.9375 8.71875 24.7708 9.40625 25.375C10.1146 25.9583 10.9479 26.25 11.9062 26.25H26.5C27.6042 26.25 28.4583 25.9167 29.0625 25.25C29.6667 24.5833 29.9688 23.75 29.9688 22.75V11.4062C29.9688 10.3438 29.6354 9.5 28.9688 8.875C28.3229 8.25 27.5 7.9375 26.5 7.9375H8.65625V0.21875H26.5C27.625 0.21875 28.8333 0.416667 30.125 0.8125C31.4375 1.20833 32.6458 1.85417 33.75 2.75C34.875 3.625 35.8125 4.78125 36.5625 6.21875C37.3125 7.63542 37.6875 9.36458 37.6875 11.4062V22.8125Z" fill="#EFEDFF"/>
<path d="M80.9688 11.4062C80.9688 12.5312 80.7708 13.75 80.375 15.0625C79.9792 16.3542 79.3333 17.5625 78.4375 18.6875C77.5625 19.7917 76.4062 20.7188 74.9688 21.4688C73.5521 22.2188 71.8229 22.5938 69.7812 22.5938H55.125V14.875H69.7812C70.8854 14.875 71.7396 14.5417 72.3438 13.875C72.9479 13.1875 73.25 12.3438 73.25 11.3438C73.25 10.2812 72.9062 9.44792 72.2188 8.84375C71.5521 8.23958 70.7396 7.9375 69.7812 7.9375H55.125C54.0208 7.9375 53.1667 8.28125 52.5625 8.96875C51.9583 9.63542 51.6562 10.4688 51.6562 11.4688V22.8125C51.6562 23.8958 51.9896 24.7396 52.6562 25.3438C53.3438 25.9479 54.1875 26.25 55.1875 26.25H69.7812V34H55.125C54 34 52.7812 33.8021 51.4688 33.4062C50.1771 33.0104 48.9688 32.375 47.8438 31.5C46.7396 30.6042 45.8125 29.4479 45.0625 28.0312C44.3125 26.5938 43.9375 24.8542 43.9375 22.8125V11.4062C43.9375 10.2812 44.1354 9.07292 44.5312 7.78125C44.9271 6.46875 45.5625 5.26042 46.4375 4.15625C47.3333 3.03125 48.4896 2.09375 49.9062 1.34375C51.3438 0.59375 53.0833 0.21875 55.125 0.21875H69.7812C70.9062 0.21875 72.1146 0.416667 73.4062 0.8125C74.7188 1.20833 75.9271 1.85417 77.0312 2.75C78.1562 3.625 79.0938 4.78125 79.8438 6.21875C80.5938 7.63542 80.9688 9.36458 80.9688 11.4062Z" fill="#EFEDFF"/>
</svg>
