<svg xmlns:xlink="http://www.w3.org/1999/xlink" width="100" xmlns="http://www.w3.org/2000/svg" height="100" id="screenshot-ddc8b971-8ea1-8011-8001-bd988c1d52d6" viewBox="0 0 100 100" style="-webkit-print-color-adjust: exact;" fill="none" version="1.1"><g id="shape-ddc8b971-8ea1-8011-8001-bd988c1d52d6" version="1.0" width="1024px" height="1024px" preserveAspectRatio="xMidYMid meet" rx="0" ry="0" style="fill: rgb(0, 0, 0);"><g id="shape-ddc8b971-8ea1-8011-8001-bd988c1d52d8" rx="0" ry="0" style="fill: rgb(0, 0, 0);"><g id="shape-ddc8b971-8ea1-8011-8001-bd988c1d96ad"><g id="fills-ddc8b971-8ea1-8011-8001-bd988c1d96ad"><path rx="0" ry="0" d="M30.288,73.85L30.288,73.7L30.144,73.7L30,73.7L30,72.75L30,71.8L35.374,71.8L40.747,71.8L40.747,71L40.747,70.2L42.283,70.2L43.818,70.2L43.818,69.4L43.818,68.6L45.354,68.6L46.889,68.6L46.889,67.8L46.889,67L47.944,67L49,67L49,67.95L49,68.9L48.856,68.9L48.712,68.9L48.712,69.05L48.712,69.2L48.088,69.2L47.465,69.2L47.465,69.85L47.465,70.5L47.321,70.5L47.177,70.5L47.177,70.65L47.177,70.8L45.785,70.8L44.394,70.8L44.394,71.45L44.394,72.1L44.25,72.1L44.106,72.1L44.106,72.25L44.106,72.4L42.715,72.4L41.323,72.4L41.323,73.05L41.323,73.7L41.179,73.7L41.035,73.7L41.035,73.85L41.035,74L35.662,74L30.288,74L30.288,73.85ZZ" style="fill: rgb(26, 26, 26);"/></g></g><g id="shape-ddc8b971-8ea1-8011-8001-bd988c1d96ae"><g id="fills-ddc8b971-8ea1-8011-8001-bd988c1d96ae"><path rx="0" ry="0" d="M59,71.223L59,70.446L57.4,70.446L55.8,70.446L55.8,69.669L55.8,68.892L55,68.892L54.2,68.892L54.2,68.115L54.2,67.338L53.4,67.338L52.6,67.338L52.6,66.561L52.6,65.784L51.8,65.784L51,65.784L51,62.385L51,58.986L51.8,58.986L52.6,58.986L52.6,58.5L52.6,58.014L51.8,58.014L51,58.014L51,56.169L51,54.324L52.1,54.324L53.2,54.324L53.2,55.878L53.2,57.432L53.7,57.432L54.2,57.432L54.2,55.101L54.2,52.77L55,52.77L55.8,52.77L55.8,51.993L55.8,51.216L56.6,51.216L57.4,51.216L57.4,50.439L57.4,49.662L58.2,49.662L59,49.662L59,48.885L59,48.108L59.8,48.108L60.6,48.108L60.6,47.331L60.6,46.554L62.2,46.554L63.8,46.554L63.8,45.777L63.8,45L68.9,45L74,45L74,46.068L74,47.137L69.2,47.137L64.4,47.137L64.4,47.914L64.4,48.691L62.8,48.691L61.2,48.691L61.2,49.468L61.2,50.245L60.4,50.245L59.6,50.245L59.6,51.022L59.6,51.799L58.8,51.799L58,51.799L58,52.576L58,53.353L57.2,53.353L56.4,53.353L56.4,55.683L56.4,58.014L55.6,58.014L54.8,58.014L54.8,58.791L54.8,59.568L54,59.568L53.2,59.568L53.2,62.385L53.2,65.201L54,65.201L54.8,65.201L54.8,65.978L54.8,66.755L55.6,66.755L56.4,66.755L56.4,67.532L56.4,68.309L58,68.309L59.6,68.309L59.6,69.086L59.6,69.863L61.2,69.863L62.8,69.863L62.8,70.932L62.8,72L60.9,72L59,72L59,71.223ZZ" style="fill: rgb(26, 26, 26);"/></g></g><g id="shape-ddc8b971-8ea1-8011-8001-bd988c1d96af"><g id="fills-ddc8b971-8ea1-8011-8001-bd988c1d96af"><path rx="0" ry="0" d="M47,57L47,55L48,55L49,55L49,57L49,59L48,59L47,59L47,57ZZ" style="fill: rgb(26, 26, 26);"/></g></g><g id="shape-ddc8b971-8ea1-8011-8001-bd988c1d96b0"><g id="fills-ddc8b971-8ea1-8011-8001-bd988c1d96b0"><path rx="0" ry="0" d="M43.817,54.216L43.817,53.431L43.023,53.431L42.229,53.431L42.229,52.647L42.229,51.863L41.435,51.863L40.641,51.863L40.641,51.078L40.641,50.294L39.847,50.294L39.053,50.294L39.053,49.51L39.053,48.725L37.466,48.725L35.878,48.725L35.878,47.941L35.878,47.157L31.412,47.157L26.947,47.157L26.947,47.941L26.947,48.725L26.153,48.725L25.359,48.725L25.359,49.51L25.359,50.294L24.565,50.294L23.771,50.294L23.771,51.078L23.771,51.863L22.977,51.863L22.183,51.863L22.183,52.647L22.183,53.431L21.092,53.431L20,53.431L20,52.353L20,51.275L20.794,51.275L21.588,51.275L21.588,50.49L21.588,49.706L22.382,49.706L23.176,49.706L23.176,48.922L23.176,48.137L23.969,48.137L24.763,48.137L24.763,47.353L24.763,46.569L25.557,46.569L26.351,46.569L26.351,45.784L26.351,45L31.412,45L36.473,45L36.473,45.784L36.473,46.569L38.061,46.569L39.649,46.569L39.649,47.353L39.649,48.137L40.443,48.137L41.237,48.137L41.237,48.922L41.237,49.706L42.031,49.706L42.824,49.706L42.824,50.49L42.824,51.275L43.618,51.275L44.412,51.275L44.412,52.059L44.412,52.843L45.206,52.843L46,52.843L46,53.922L46,55L44.908,55L43.817,55L43.817,54.216ZZ" style="fill: rgb(26, 26, 26);"/></g></g><g id="shape-ddc8b971-8ea1-8011-8001-bd988c1d96b1"><g id="fills-ddc8b971-8ea1-8011-8001-bd988c1d96b1"><path rx="0" ry="0" d="M48,52L48,51L50,51L52,51L52,52L52,53L50,53L48,53L48,52ZZ" style="fill: rgb(26, 26, 26);"/></g></g><g id="shape-ddc8b971-8ea1-8011-8001-bd988c1d96b2"><g id="fills-ddc8b971-8ea1-8011-8001-bd988c1d96b2"><path rx="0" ry="0" d="M31,43.084L31,42.169L31.139,42.169L31.278,42.169L31.278,42.024L31.278,41.88L31.88,41.88L32.481,41.88L32.481,39.711L32.481,37.542L32.62,37.542L32.759,37.542L32.759,37.398L32.759,37.253L33.361,37.253L33.963,37.253L33.963,32.771L33.963,28.289L34.102,28.289L34.241,28.289L34.241,28.145L34.241,28L35.12,28L36,28L36,32.916L36,37.831L35.259,37.831L34.519,37.831L34.519,40.145L34.519,42.458L33.778,42.458L33.037,42.458L33.037,43.229L33.037,44L32.019,44L31,44L31,43.084ZZ" style="fill: rgb(26, 26, 26);"/></g></g><g id="shape-ddc8b971-8ea1-8011-8001-bd988c1d96b3"><g id="fills-ddc8b971-8ea1-8011-8001-bd988c1d96b3"><path rx="0" ry="0" d="M42,42.241L42,40.481L43.552,40.481L45.104,40.481L45.104,39.741L45.104,39L50.052,39L55,39L55,40.759L55,42.519L54.224,42.519L53.448,42.519L53.448,43.259L53.448,44L52.381,44L51.313,44L51.313,42.519L51.313,41.037L48.5,41.037L45.687,41.037L45.687,41.778L45.687,42.519L44.91,42.519L44.134,42.519L44.134,43.259L44.134,44L43.067,44L42,44L42,42.241ZZ" style="fill: rgb(26, 26, 26);"/></g></g></g><g id="shape-ddc8b971-8ea1-8011-8001-bd988c1d52d9" rx="0" ry="0" style="fill: rgb(0, 0, 0);"><g id="shape-ddc8b971-8ea1-8011-8001-bd988c1d96b4"><g id="fills-ddc8b971-8ea1-8011-8001-bd988c1d96b4"><path rx="0" ry="0" d="M58.862,73.854L58.862,73.708L58.716,73.708L58.57,73.708L58.57,73.075L58.57,72.442L57.156,72.442L55.741,72.442L55.741,72.296L55.741,72.15L55.595,72.15L55.449,72.15L55.449,71.517L55.449,70.884L54.035,70.884L52.621,70.884L52.621,70.738L52.621,70.592L52.474,70.592L52.328,70.592L52.328,69.959L52.328,69.326L51.694,69.326L51.06,69.326L51.06,69.18L51.06,69.034L50.914,69.034L50.768,69.034L50.768,68.401L50.768,67.768L49.354,67.768L47.94,67.768L47.94,67.622L47.94,67.476L47.159,67.476L46.379,67.476L46.379,68.255L46.379,69.034L46.526,69.034L46.672,69.034L46.672,69.18L46.672,69.326L46.526,69.326L46.379,69.326L46.379,69.18L46.379,69.034L44.819,69.034L43.259,69.034L43.259,69.813L43.259,70.592L43.405,70.592L43.551,70.592L43.551,70.738L43.551,70.884L43.405,70.884L43.259,70.884L43.259,70.738L43.259,70.592L41.698,70.592L40.138,70.592L40.138,71.371L40.138,72.15L40.284,72.15L40.43,72.15L40.43,72.296L40.43,72.442L40.284,72.442L40.138,72.442L40.138,72.296L40.138,72.15L38.431,72.15L36.724,72.15L36.724,71.225L36.724,70.3L38.285,70.3L39.845,70.3L39.845,69.521L39.845,68.742L41.406,68.742L42.966,68.742L42.966,67.963L42.966,67.184L43.746,67.184L44.526,67.184L44.526,66.404L44.526,65.625L45.307,65.625L46.087,65.625L46.087,64.846L46.087,64.067L46.867,64.067L47.647,64.067L47.647,62.022L47.647,59.978L46.087,59.978L44.526,59.978L44.526,59.199L44.526,58.419L43.746,58.419L42.966,58.419L42.966,56.569L42.966,54.719L43.112,54.719L43.259,54.719L43.259,54.865L43.259,55.011L44.039,55.011L44.819,55.011L44.819,54.232L44.819,53.453L44.039,53.453L43.259,53.453L43.259,53.599L43.259,53.745L43.112,53.745L42.966,53.745L42.966,53.599L42.966,53.453L43.112,53.453L43.259,53.453L43.259,52.674L43.259,51.895L42.478,51.895L41.698,51.895L41.698,52.041L41.698,52.187L41.552,52.187L41.406,52.187L41.406,52.041L41.406,51.895L41.552,51.895L41.698,51.895L41.698,51.116L41.698,50.337L40.918,50.337L40.138,50.337L40.138,50.483L40.138,50.629L39.991,50.629L39.845,50.629L39.845,50.483L39.845,50.337L39.991,50.337L40.138,50.337L40.138,49.558L40.138,48.779L39.358,48.779L38.577,48.779L38.577,48.925L38.577,49.071L38.431,49.071L38.285,49.071L38.285,48.925L38.285,48.779L38.431,48.779L38.577,48.779L38.577,48L38.577,47.221L37.017,47.221L35.457,47.221L35.457,47.367L35.457,47.513L35.31,47.513L35.164,47.513L35.164,47.367L35.164,47.221L35.31,47.221L35.457,47.221L35.457,46.442L35.457,45.663L30.776,45.663L26.094,45.663L26.094,46.442L26.094,47.221L26.241,47.221L26.387,47.221L26.387,47.367L26.387,47.513L26.241,47.513L26.094,47.513L26.094,47.367L26.094,47.221L25.314,47.221L24.534,47.221L24.534,48L24.534,48.779L24.68,48.779L24.827,48.779L24.827,48.925L24.827,49.071L24.68,49.071L24.534,49.071L24.534,48.925L24.534,48.779L23.754,48.779L22.974,48.779L22.974,49.558L22.974,50.337L23.12,50.337L23.266,50.337L23.266,50.483L23.266,50.629L23.12,50.629L22.974,50.629L22.974,50.483L22.974,50.337L22.193,50.337L21.413,50.337L21.413,51.116L21.413,51.895L21.56,51.895L21.706,51.895L21.706,52.041L21.706,52.187L21.56,52.187L21.413,52.187L21.413,52.041L21.413,51.895L20.633,51.895L19.853,51.895L19.853,52.674L19.853,53.453L19.999,53.453L20.146,53.453L20.146,56.423L20.146,59.393L20.926,59.393L21.706,59.393L21.706,60.464L21.706,61.536L21.56,61.536L21.413,61.536L21.413,61.39L21.413,61.243L20.487,61.243L19.56,61.243L19.56,60.61L19.56,59.978L18.926,59.978L18.293,59.978L18.293,59.831L18.293,59.685L18.146,59.685L18,59.685L18,55.011L18,50.337L18.146,50.337L18.293,50.337L18.293,50.191L18.293,50.045L18.926,50.045L19.56,50.045L19.56,49.412L19.56,48.779L19.707,48.779L19.853,48.779L19.853,48.633L19.853,48.487L20.487,48.487L21.121,48.487L21.121,47.854L21.121,47.221L21.267,47.221L21.413,47.221L21.413,47.075L21.413,46.929L22.047,46.929L22.681,46.929L22.681,46.296L22.681,45.663L22.827,45.663L22.974,45.663L22.974,45.517L22.974,45.371L23.608,45.371L24.241,45.371L24.241,44.738L24.241,44.105L24.388,44.105L24.534,44.105L24.534,43.959L24.534,43.813L27.655,43.813L30.776,43.813L30.776,43.959L30.776,44.105L31.556,44.105L32.336,44.105L32.336,43.326L32.336,42.547L32.19,42.547L32.043,42.547L32.043,42.401L32.043,42.255L32.19,42.255L32.336,42.255L32.336,42.401L32.336,42.547L33.116,42.547L33.896,42.547L33.896,40.21L33.896,37.873L33.75,37.873L33.604,37.873L33.604,37.727L33.604,37.581L33.75,37.581L33.896,37.581L33.896,37.727L33.896,37.873L34.676,37.873L35.457,37.873L35.457,33.199L35.457,28.524L35.31,28.524L35.164,28.524L35.164,26.966L35.164,25.408L35.31,25.408L35.457,25.408L35.457,25.262L35.457,25.116L36.091,25.116L36.724,25.116L36.724,24.483L36.724,23.85L36.871,23.85L37.017,23.85L37.017,23.704L37.017,23.558L37.651,23.558L38.285,23.558L38.285,22.925L38.285,22.292L38.431,22.292L38.577,22.292L38.577,22.146L38.577,22L40.918,22L43.259,22L43.259,22.146L43.259,22.292L43.405,22.292L43.551,22.292L43.551,23.217L43.551,24.142L41.991,24.142L40.43,24.142L40.43,24.921L40.43,25.7L39.65,25.7L38.87,25.7L38.87,26.479L38.87,27.258L38.09,27.258L37.31,27.258L37.31,33.978L37.31,40.697L38.09,40.697L38.87,40.697L38.87,41.476L38.87,42.255L40.284,42.255L41.698,42.255L41.698,43.18L41.698,44.105L41.844,44.105L41.991,44.105L41.991,45.517L41.991,46.929L42.771,46.929L43.551,46.929L43.551,47.708L43.551,48.487L45.599,48.487L47.647,48.487L47.647,47.708L47.647,46.929L48.427,46.929L49.207,46.929L49.207,45.663L49.207,44.397L48.427,44.397L47.647,44.397L47.647,43.618L47.647,42.839L46.087,42.839L44.526,42.839L44.526,42.693L44.526,42.547L44.673,42.547L44.819,42.547L44.819,41.768L44.819,40.989L44.673,40.989L44.526,40.989L44.526,40.843L44.526,40.697L44.673,40.697L44.819,40.697L44.819,40.843L44.819,40.989L47.94,40.989L51.06,40.989L51.06,42.547L51.06,44.105L51.207,44.105L51.353,44.105L51.353,45.517L51.353,46.929L52.133,46.929L52.913,46.929L52.913,47.708L52.913,48.487L54.961,48.487L57.009,48.487L57.009,47.708L57.009,46.929L57.789,46.929L58.57,46.929L58.57,45.663L58.57,44.397L57.789,44.397L57.009,44.397L57.009,43.618L57.009,42.839L55.449,42.839L53.889,42.839L53.889,42.693L53.889,42.547L54.035,42.547L54.181,42.547L54.181,41.622L54.181,40.697L55.888,40.697L57.594,40.697L57.594,41.476L57.594,42.255L58.862,42.255L60.13,42.255L60.13,41.476L60.13,40.697L60.91,40.697L61.69,40.697L61.69,33.978L61.69,27.258L60.91,27.258L60.13,27.258L60.13,26.479L60.13,25.7L59.35,25.7L58.57,25.7L58.57,23.85L58.57,22L59.496,22L60.423,22L60.423,22.146L60.423,22.292L60.569,22.292L60.715,22.292L60.715,22.925L60.715,23.558L61.349,23.558L61.983,23.558L61.983,23.704L61.983,23.85L62.129,23.85L62.276,23.85L62.276,24.483L62.276,25.116L62.909,25.116L63.543,25.116L63.543,25.262L63.543,25.408L63.69,25.408L63.836,25.408L63.836,31.494L63.836,37.581L64.616,37.581L65.396,37.581L65.396,39.918L65.396,42.255L66.81,42.255L68.224,42.255L68.224,42.401L68.224,42.547L68.371,42.547L68.517,42.547L68.517,43.18L68.517,43.813L71.491,43.813L74.466,43.813L74.466,43.959L74.466,44.105L74.612,44.105L74.759,44.105L74.759,44.738L74.759,45.371L75.392,45.371L76.026,45.371L76.026,45.517L76.026,45.663L76.173,45.663L76.319,45.663L76.319,46.296L76.319,46.929L76.953,46.929L77.587,46.929L77.587,47.075L77.587,47.221L77.733,47.221L77.879,47.221L77.879,47.854L77.879,48.487L78.513,48.487L79.147,48.487L79.147,48.633L79.147,48.779L79.293,48.779L79.44,48.779L79.44,49.412L79.44,50.045L80.074,50.045L80.707,50.045L80.707,50.191L80.707,50.337L80.854,50.337L81,50.337L81,55.011L81,59.685L80.854,59.685L80.707,59.685L80.707,59.831L80.707,59.978L80.074,59.978L79.44,59.978L79.44,60.61L79.44,61.243L78.513,61.243L77.587,61.243L77.587,61.39L77.587,61.536L77.44,61.536L77.294,61.536L77.294,60.464L77.294,59.393L78.074,59.393L78.854,59.393L78.854,56.569L78.854,53.745L78.074,53.745L77.294,53.745L77.294,52.966L77.294,52.187L76.514,52.187L75.734,52.187L75.734,51.408L75.734,50.629L74.954,50.629L74.173,50.629L74.173,49.85L74.173,49.071L73.393,49.071L72.613,49.071L72.613,48.146L72.613,47.221L72.759,47.221L72.906,47.221L72.906,46.442L72.906,45.663L68.224,45.663L63.543,45.663L63.543,46.442L63.543,47.221L63.69,47.221L63.836,47.221L63.836,47.367L63.836,47.513L63.69,47.513L63.543,47.513L63.543,47.367L63.543,47.221L61.983,47.221L60.423,47.221L60.423,48L60.423,48.779L60.569,48.779L60.715,48.779L60.715,48.925L60.715,49.071L60.569,49.071L60.423,49.071L60.423,48.925L60.423,48.779L59.642,48.779L58.862,48.779L58.862,49.558L58.862,50.337L59.009,50.337L59.155,50.337L59.155,50.483L59.155,50.629L59.009,50.629L58.862,50.629L58.862,50.483L58.862,50.337L58.082,50.337L57.302,50.337L57.302,51.116L57.302,51.895L57.448,51.895L57.594,51.895L57.594,52.041L57.594,52.187L57.448,52.187L57.302,52.187L57.302,52.041L57.302,51.895L56.522,51.895L55.741,51.895L55.741,52.674L55.741,53.453L55.888,53.453L56.034,53.453L56.034,53.599L56.034,53.745L55.888,53.745L55.741,53.745L55.741,53.599L55.741,53.453L54.961,53.453L54.181,53.453L54.181,54.378L54.181,55.303L53.401,55.303L52.621,55.303L52.621,55.157L52.621,55.011L52.474,55.011L52.328,55.011L52.328,54.378L52.328,53.745L51.548,53.745L50.768,53.745L50.768,53.599L50.768,53.453L50.914,53.453L51.06,53.453L51.06,52.674L51.06,51.895L50.914,51.895L50.768,51.895L50.768,51.262L50.768,50.629L49.5,50.629L48.232,50.629L48.232,51.262L48.232,51.895L48.086,51.895L47.94,51.895L47.94,52.674L47.94,53.453L48.086,53.453L48.232,53.453L48.232,53.599L48.232,53.745L47.452,53.745L46.672,53.745L46.672,54.378L46.672,55.011L46.526,55.011L46.379,55.011L46.379,55.157L46.379,55.303L45.745,55.303L45.111,55.303L45.111,56.569L45.111,57.835L45.745,57.835L46.379,57.835L46.379,57.981L46.379,58.127L47.159,58.127L47.94,58.127L47.94,57.981L47.94,57.835L49.5,57.835L51.06,57.835L51.06,57.981L51.06,58.127L51.841,58.127L52.621,58.127L52.621,57.981L52.621,57.835L52.767,57.835L52.913,57.835L52.913,57.981L52.913,58.127L52.767,58.127L52.621,58.127L52.621,58.906L52.621,59.685L52.767,59.685L52.913,59.685L52.913,59.831L52.913,59.978L52.767,59.978L52.621,59.978L52.621,59.831L52.621,59.685L51.841,59.685L51.06,59.685L51.06,62.801L51.06,65.918L51.841,65.918L52.621,65.918L52.621,65.772L52.621,65.625L52.767,65.625L52.913,65.625L52.913,65.772L52.913,65.918L52.767,65.918L52.621,65.918L52.621,66.697L52.621,67.476L53.401,67.476L54.181,67.476L54.181,67.33L54.181,67.184L54.327,67.184L54.474,67.184L54.474,67.33L54.474,67.476L54.327,67.476L54.181,67.476L54.181,68.255L54.181,69.034L54.961,69.034L55.741,69.034L55.741,68.888L55.741,68.742L55.888,68.742L56.034,68.742L56.034,68.888L56.034,69.034L55.888,69.034L55.741,69.034L55.741,69.813L55.741,70.592L57.302,70.592L58.862,70.592L58.862,70.446L58.862,70.3L59.009,70.3L59.155,70.3L59.155,70.446L59.155,70.592L59.009,70.592L58.862,70.592L58.862,71.371L58.862,72.15L60.423,72.15L61.983,72.15L61.983,72.004L61.983,71.858L65.738,71.858L69.492,71.858L69.492,71.079L69.492,70.3L70.419,70.3L71.345,70.3L71.345,71.371L71.345,72.442L70.711,72.442L70.077,72.442L70.077,73.075L70.077,73.708L69.931,73.708L69.785,73.708L69.785,73.854L69.785,74L64.324,74L58.862,74L58.862,73.854ZZ" style="fill: rgb(42, 42, 42);"/></g></g><g id="shape-ddc8b971-8ea1-8011-8001-bd988c1d96b5"><g id="fills-ddc8b971-8ea1-8011-8001-bd988c1d96b5"><path rx="0" ry="0" d="M28,71L28,70L29,70L30,70L30,70.864L30,71.727L29.842,71.727L29.684,71.727L29.684,71.864L29.684,72L28.842,72L28,72L28,71ZZ" style="fill: rgb(42, 42, 42);"/></g></g><g id="shape-ddc8b971-8ea1-8011-8001-bd988c1d96b6"><g id="fills-ddc8b971-8ea1-8011-8001-bd988c1d96b6"><path rx="0" ry="0" d="M45,23.136L45,22.273L45.136,22.273L45.273,22.273L45.273,22.136L45.273,22L46,22L46.727,22L46.727,22.136L46.727,22.273L46.864,22.273L47,22.273L47,23.136L47,24L46,24L45,24L45,23.136ZZ" style="fill: rgb(42, 42, 42);"/></g></g><g id="shape-ddc8b971-8ea1-8011-8001-bd988c1d96b7"><g id="fills-ddc8b971-8ea1-8011-8001-bd988c1d96b7"><path rx="0" ry="0" d="M52,23.136L52,22.273L52.136,22.273L52.273,22.273L52.273,22.136L52.273,22L53,22L53.727,22L53.727,22.136L53.727,22.273L53.864,22.273L54,22.273L54,23.136L54,24L53,24L52,24L52,23.136ZZ" style="fill: rgb(42, 42, 42);"/></g></g></g><g id="shape-ddc8b971-8ea1-8011-8001-bd988c1d52da" rx="0" ry="0" style="fill: rgb(0, 0, 0);"><g id="shape-ddc8b971-8ea1-8011-8001-bd988c1d96b8"><g id="fills-ddc8b971-8ea1-8011-8001-bd988c1d96b8"><path rx="0" ry="0" d="M47,62.5L47,60L48,60L49,60L49,62.353L49,64.706L48.158,64.706L47.316,64.706L47.316,64.853L47.316,65L47.158,65L47,65L47,62.5ZZ" style="fill: rgb(58, 58, 58);"/></g></g><g id="shape-ddc8b971-8ea1-8011-8001-bd988c1d96b9"><g id="fills-ddc8b971-8ea1-8011-8001-bd988c1d96b9"><path rx="0" ry="0" d="M47,48.109L47,47.219L47.686,47.219L48.371,47.219L48.371,46L48.371,44.781L47.686,44.781L47,44.781L47,43.891L47,43L47.814,43L48.629,43L48.629,43.75L48.629,44.5L49.314,44.5L50,44.5L50,46L50,47.5L49.314,47.5L48.629,47.5L48.629,48.25L48.629,49L47.814,49L47,49L47,48.109ZZ" style="fill: rgb(58, 58, 58);"/></g></g><g id="shape-ddc8b971-8ea1-8011-8001-bd988c1d96ba"><g id="fills-ddc8b971-8ea1-8011-8001-bd988c1d96ba"><path rx="0" ry="0" d="M57,48.149L57,47.299L57.686,47.299L58.371,47.299L58.371,46.134L58.371,44.97L57.686,44.97L57,44.97L57,44.119L57,43.269L57.814,43.269L58.629,43.269L58.629,43.134L58.629,43L58.757,43L58.886,43L58.886,43.134L58.886,43.269L58.757,43.269L58.629,43.269L58.629,43.985L58.629,44.701L59.314,44.701L60,44.701L60,46.134L60,47.567L59.314,47.567L58.629,47.567L58.629,48.284L58.629,49L57.814,49L57,49L57,48.149ZZ" style="fill: rgb(58, 58, 58);"/></g></g><g id="shape-ddc8b971-8ea1-8011-8001-bd988c1d96bb"><g id="fills-ddc8b971-8ea1-8011-8001-bd988c1d96bb"><path rx="0" ry="0" d="M66.371,39.714L66.371,37.429L65.686,37.429L65,37.429L65,32.714L65,28L65.686,28L66.371,28L66.371,28.143L66.371,28.286L66.5,28.286L66.629,28.286L66.629,32.714L66.629,37.143L67.186,37.143L67.743,37.143L67.743,37.286L67.743,37.429L67.871,37.429L68,37.429L68,39.714L68,42L67.186,42L66.371,42L66.371,39.714ZZ" style="fill: rgb(58, 58, 58);"/></g></g><g id="shape-ddc8b971-8ea1-8011-8001-bd988c1d96bc"><g id="fills-ddc8b971-8ea1-8011-8001-bd988c1d96bc"><path rx="0" ry="0" d="M57,23.136L57,22.273L57.158,22.273L57.316,22.273L57.316,22.136L57.316,22L59.158,22L61,22L61,22.136L61,22.273L60.842,22.273L60.684,22.273L60.684,23.136L60.684,24L58.842,24L57,24L57,23.136ZZ" style="fill: rgb(58, 58, 58);"/></g></g></g><g id="shape-ddc8b971-8ea1-8011-8001-bd988c1d52db" rx="0" ry="0" style="fill: rgb(0, 0, 0);"><g id="shape-ddc8b971-8ea1-8011-8001-bd988c1d96bd"><g id="fills-ddc8b971-8ea1-8011-8001-bd988c1d96bd"><path rx="0" ry="0" d="M32,74.158L32,73.316L35.86,73.316L39.721,73.316L39.721,73.158L39.721,73L39.86,73L40,73L40,73.158L40,73.316L39.86,73.316L39.721,73.316L39.721,74.158L39.721,75L35.86,75L32,75L32,74.158ZZ" style="fill: rgb(8, 167, 0);"/></g></g><g id="shape-ddc8b971-8ea1-8011-8001-bd988c1d96be"><g id="fills-ddc8b971-8ea1-8011-8001-bd988c1d96be"><path rx="0" ry="0" d="M60,74.314L60,73.629L64.735,73.629L69.47,73.629L69.47,72.943L69.47,72.257L69.326,72.257L69.183,72.257L69.183,72.129L69.183,72L69.326,72L69.47,72L69.47,72.129L69.47,72.257L70.235,72.257L71,72.257L71,72.943L71,73.629L70.235,73.629L69.47,73.629L69.47,74.314L69.47,75L64.735,75L60,75L60,74.314ZZ" style="fill: rgb(8, 167, 0);"/></g></g><g id="shape-ddc8b971-8ea1-8011-8001-bd988c1d96bf"><g id="fills-ddc8b971-8ea1-8011-8001-bd988c1d96bf"><path rx="0" ry="0" d="M58.727,73.842L58.727,73.684L57.864,73.684L57,73.684L57,72.842L57,72L57.864,72L58.727,72L58.727,72.842L58.727,73.684L58.864,73.684L59,73.684L59,73.842L59,74L58.864,74L58.727,74L58.727,73.842ZZ" style="fill: rgb(8, 167, 0);"/></g></g><g id="shape-ddc8b971-8ea1-8011-8001-bd988c1d96c0"><g id="fills-ddc8b971-8ea1-8011-8001-bd988c1d96c0"><path rx="0" ry="0" d="M41,72.25L41,71.5L41.931,71.5L42.863,71.5L42.863,70.75L42.863,70L44.431,70L46,70L46,69.25L46,68.5L46.784,68.5L47.569,68.5L47.569,67.75L47.569,67L49.137,67L50.706,67L50.706,67.75L50.706,68.5L50.853,68.5L51,68.5L51,68.641L51,68.781L50.853,68.781L50.706,68.781L50.706,68.641L50.706,68.5L49.137,68.5L47.569,68.5L47.569,69.25L47.569,70L46.784,70L46,70L46,70.75L46,71.5L44.431,71.5L42.863,71.5L42.863,72.25L42.863,73L41.931,73L41,73L41,72.25ZZ" style="fill: rgb(8, 167, 0);"/></g></g><g id="shape-ddc8b971-8ea1-8011-8001-bd988c1d96c1"><g id="fills-ddc8b971-8ea1-8011-8001-bd988c1d96c1"><path rx="0" ry="0" d="M55.727,71.842L55.727,71.684L54.864,71.684L54,71.684L54,70.842L54,70L54.864,70L55.727,70L55.727,70.842L55.727,71.684L55.864,71.684L56,71.684L56,71.842L56,72L55.864,72L55.727,72L55.727,71.842ZZ" style="fill: rgb(8, 167, 0);"/></g></g><g id="shape-ddc8b971-8ea1-8011-8001-bd988c1d96c2"><g id="fills-ddc8b971-8ea1-8011-8001-bd988c1d96c2"><path rx="0" ry="0" d="M53.864,65.854L53.864,65.708L53.079,65.708L52.294,65.708L52.294,62.59L52.294,59.472L53.079,59.472L53.864,59.472L53.864,58.692L53.864,57.913L53.079,57.913L52.294,57.913L52.294,56.354L52.294,54.795L52.147,54.795L52,54.795L52,54.649L52,54.503L52.147,54.503L52.294,54.503L52.294,54.649L52.294,54.795L53.079,54.795L53.864,54.795L53.864,56.354L53.864,57.913L54.65,57.913L55.435,57.913L55.435,55.574L55.435,53.236L56.22,53.236L57.005,53.236L57.005,52.456L57.005,51.677L57.79,51.677L58.575,51.677L58.575,50.897L58.575,50.118L59.36,50.118L60.145,50.118L60.145,49.338L60.145,48.559L61.715,48.559L63.285,48.559L63.285,47.779L63.285,47L67.995,47L72.706,47L72.706,47.779L72.706,48.559L72.853,48.559L73,48.559L73,48.705L73,48.851L69.075,48.851L65.15,48.851L65.15,49.631L65.15,50.41L63.579,50.41L62.009,50.41L62.009,51.19L62.009,51.969L61.224,51.969L60.439,51.969L60.439,52.749L60.439,53.528L59.654,53.528L58.869,53.528L58.869,54.308L58.869,55.087L58.084,55.087L57.299,55.087L57.299,57.426L57.299,59.764L56.514,59.764L55.729,59.764L55.729,60.544L55.729,61.323L54.944,61.323L54.159,61.323L54.159,63.662L54.159,66L54.012,66L53.864,66L53.864,65.854ZZ" style="fill: rgb(8, 167, 0);"/></g></g><g id="shape-ddc8b971-8ea1-8011-8001-bd988c1d96c3"><g id="fills-ddc8b971-8ea1-8011-8001-bd988c1d96c3"><path rx="0" ry="0" d="M18.297,60.222L18.297,59.444L18.148,59.444L18,59.444L18,59.299L18,59.153L18.148,59.153L18.297,59.153L18.297,59.299L18.297,59.444L19.088,59.444L19.879,59.444L19.879,56.333L19.879,53.222L20.67,53.222L21.462,53.222L21.462,52.444L21.462,51.667L22.253,51.667L23.044,51.667L23.044,50.889L23.044,50.111L23.835,50.111L24.626,50.111L24.626,49.333L24.626,48.556L25.418,48.556L26.209,48.556L26.209,47.778L26.209,47L30.956,47L35.703,47L35.703,47.778L35.703,48.556L35.852,48.556L36,48.556L36,48.701L36,48.847L32.044,48.847L28.088,48.847L28.088,49.625L28.088,50.403L27.297,50.403L26.505,50.403L26.505,51.181L26.505,51.958L25.714,51.958L24.923,51.958L24.923,52.736L24.923,53.514L24.132,53.514L23.341,53.514L23.341,54.292L23.341,55.069L22.549,55.069L21.758,55.069L21.758,57.403L21.758,59.736L21.61,59.736L21.462,59.736L21.462,59.59L21.462,59.444L20.67,59.444L19.879,59.444L19.879,60.222L19.879,61L19.088,61L18.297,61L18.297,60.222ZZ" style="fill: rgb(8, 167, 0);"/></g></g><g id="shape-ddc8b971-8ea1-8011-8001-bd988c1d96c4"><g id="fills-ddc8b971-8ea1-8011-8001-bd988c1d96c4"><path rx="0" ry="0" d="M80,59.843L80,59.686L80.158,59.686L80.316,59.686L80.316,55.343L80.316,51L81.158,51L82,51L82,55.343L82,59.686L81.158,59.686L80.316,59.686L80.316,59.843L80.316,60L80.158,60L80,60L80,59.843ZZ" style="fill: rgb(8, 167, 0);"/></g></g><g id="shape-ddc8b971-8ea1-8011-8001-bd988c1d96c5"><g id="fills-ddc8b971-8ea1-8011-8001-bd988c1d96c5"><path rx="0" ry="0" d="M45,57.864L45,57.727L45.158,57.727L45.316,57.727L45.316,56.864L45.316,56L46.158,56L47,56L47,56.864L47,57.727L46.158,57.727L45.316,57.727L45.316,57.864L45.316,58L45.158,58L45,58L45,57.864ZZ" style="fill: rgb(8, 167, 0);"/></g></g><g id="shape-ddc8b971-8ea1-8011-8001-bd988c1d96c6"><g id="fills-ddc8b971-8ea1-8011-8001-bd988c1d96c6"><path rx="0" ry="0" d="M48,56.333L48,54.667L47.158,54.667L46.316,54.667L46.316,54.823L46.316,54.979L46.158,54.979L46,54.979L46,54.823L46,54.667L46.158,54.667L46.316,54.667L46.316,53.833L46.316,53L47.316,53L48.316,53L48.316,53.677L48.316,54.354L49.158,54.354L50,54.354L50,56.177L50,58L49,58L48,58L48,56.333ZZ" style="fill: rgb(8, 167, 0);"/></g></g><g id="shape-ddc8b971-8ea1-8011-8001-bd988c1d96c7"><g id="fills-ddc8b971-8ea1-8011-8001-bd988c1d96c7"><path rx="0" ry="0" d="M48,51L48,50L49,50L50,50L50,51L50,52L49,52L48,52L48,51ZZ" style="fill: rgb(8, 167, 0);"/></g></g><g id="shape-ddc8b971-8ea1-8011-8001-bd988c1d96c8"><g id="fills-ddc8b971-8ea1-8011-8001-bd988c1d96c8"><path rx="0" ry="0" d="M43.569,46.853L43.569,46.706L42.784,46.706L42,46.706L42,45.137L42,43.569L42.784,43.569L43.569,43.569L43.569,42.784L43.569,42L45.137,42L46.706,42L46.706,42.784L46.706,43.569L46.853,43.569L47,43.569L47,43.716L47,43.863L46.216,43.863L45.431,43.863L45.431,44.647L45.431,45.431L44.647,45.431L43.863,45.431L43.863,46.216L43.863,47L43.716,47L43.569,47L43.569,46.853ZZ" style="fill: rgb(8, 167, 0);"/></g></g><g id="shape-ddc8b971-8ea1-8011-8001-bd988c1d96c9"><g id="fills-ddc8b971-8ea1-8011-8001-bd988c1d96c9"><path rx="0" ry="0" d="M52.569,46.853L52.569,46.706L51.784,46.706L51,46.706L51,45.137L51,43.569L51.784,43.569L52.569,43.569L52.569,42.784L52.569,42L54.137,42L55.706,42L55.706,42.784L55.706,43.569L55.853,43.569L56,43.569L56,43.716L56,43.863L55.216,43.863L54.431,43.863L54.431,44.647L54.431,45.431L53.647,45.431L52.863,45.431L52.863,46.216L52.863,47L52.716,47L52.569,47L52.569,46.853ZZ" style="fill: rgb(8, 167, 0);"/></g></g><g id="shape-ddc8b971-8ea1-8011-8001-bd988c1d96ca"><g id="fills-ddc8b971-8ea1-8011-8001-bd988c1d96ca"><path rx="0" ry="0" d="M38.433,40.852L38.433,40.703L37.716,40.703L37,40.703L37,33.582L37,26.462L37.716,26.462L38.433,26.462L38.433,25.67L38.433,24.879L39.149,24.879L39.866,24.879L39.866,24.088L39.866,23.297L41.299,23.297L42.731,23.297L42.731,23.148L42.731,23L42.866,23L43,23L43,24.088L43,25.176L42.284,25.176L41.567,25.176L41.567,25.967L41.567,26.758L40.851,26.758L40.134,26.758L40.134,27.549L40.134,28.341L39.418,28.341L38.701,28.341L38.701,34.67L38.701,41L38.567,41L38.433,41L38.433,40.852ZZ" style="fill: rgb(8, 167, 0);"/></g></g><g id="shape-ddc8b971-8ea1-8011-8001-bd988c1d96cb"><g id="fills-ddc8b971-8ea1-8011-8001-bd988c1d96cb"><path rx="0" ry="0" d="M60.137,28.216L60.137,27.431L59.353,27.431L58.569,27.431L58.569,26.647L58.569,25.863L57.784,25.863L57,25.863L57,24.931L57,24L57.931,24L58.863,24L58.863,24.784L58.863,25.569L59.647,25.569L60.431,25.569L60.431,26.353L60.431,27.137L61.216,27.137L62,27.137L62,28.069L62,29L61.069,29L60.137,29L60.137,28.216ZZ" style="fill: rgb(8, 167, 0);"/></g></g><g id="shape-ddc8b971-8ea1-8011-8001-bd988c1d96cc"><g id="fills-ddc8b971-8ea1-8011-8001-bd988c1d96cc"><path rx="0" ry="0" d="M46,24.136L46,23.273L46.136,23.273L46.273,23.273L46.273,23.136L46.273,23L47.136,23L48,23L48,24L48,25L47,25L46,25L46,24.136ZZ" style="fill: rgb(8, 167, 0);"/></g></g><g id="shape-ddc8b971-8ea1-8011-8001-bd988c1d96cd"><g id="fills-ddc8b971-8ea1-8011-8001-bd988c1d96cd"><path rx="0" ry="0" d="M54,24.136L54,23.273L54.136,23.273L54.273,23.273L54.273,23.136L54.273,23L55,23L55.727,23L55.727,23.136L55.727,23.273L55.864,23.273L56,23.273L56,24.136L56,25L55,25L54,25L54,24.136ZZ" style="fill: rgb(8, 167, 0);"/></g></g></g><g id="shape-ddc8b971-8ea1-8011-8001-bd988c1d52dc" rx="0" ry="0" style="fill: rgb(0, 0, 0);"><g id="shape-ddc8b971-8ea1-8011-8001-bd988c1d96ce"><g id="fills-ddc8b971-8ea1-8011-8001-bd988c1d96ce"><path rx="0" ry="0" d="M29.813,74.206L29.813,73.412L29.031,73.412L28.25,73.412L28.25,72.618L28.25,71.824L29.031,71.824L29.813,71.824L29.813,71.029L29.813,70.235L29.031,70.235L28.25,70.235L28.25,69.441L28.25,68.647L28.104,68.647L27.957,68.647L27.957,68.498L27.957,68.349L29.813,68.349L31.668,68.349L31.668,69.143L31.668,69.938L32.156,69.938L32.645,69.938L32.645,69.143L32.645,68.349L35.77,68.349L38.895,68.349L38.895,67.555L38.895,66.761L39.676,66.761L40.457,66.761L40.457,65.967L40.457,65.173L41.238,65.173L42.02,65.173L42.02,64.379L42.02,63.585L42.801,63.585L43.582,63.585L43.582,62.294L43.582,61.004L42.801,61.004L42.02,61.004L42.02,60.21L42.02,59.415L41.238,59.415L40.457,59.415L40.457,57.827L40.457,56.239L39.676,56.239L38.895,56.239L38.895,54.651L38.895,53.063L37.332,53.063L35.77,53.063L35.77,52.268L35.77,51.474L32.938,51.474L30.105,51.474L30.105,52.268L30.105,53.063L29.324,53.063L28.543,53.063L28.543,53.857L28.543,54.651L27.762,54.651L26.98,54.651L26.98,55.445L26.98,56.239L26.199,56.239L25.418,56.239L25.418,57.033L25.418,57.827L24.637,57.827L23.855,57.827L23.855,60.21L23.855,62.592L23.709,62.592L23.563,62.592L23.563,62.443L23.563,62.294L22.781,62.294L22,62.294L22,58.324L22,54.353L22.781,54.353L23.563,54.353L23.563,53.559L23.563,52.765L24.344,52.765L25.125,52.765L25.125,51.971L25.125,51.176L25.906,51.176L26.688,51.176L26.688,50.382L26.688,49.588L27.469,49.588L28.25,49.588L28.25,48.794L28.25,48L33.719,48L39.188,48L39.188,48.794L39.188,49.588L39.969,49.588L40.75,49.588L40.75,50.382L40.75,51.176L41.531,51.176L42.313,51.176L42.313,51.971L42.313,52.765L43.094,52.765L43.875,52.765L43.875,55.147L43.875,57.529L44.656,57.529L45.438,57.529L45.438,58.324L45.438,59.118L46.219,59.118L47,59.118L47,62.294L47,65.471L46.219,65.471L45.438,65.471L45.438,66.265L45.438,67.059L44.656,67.059L43.875,67.059L43.875,67.853L43.875,68.647L42.313,68.647L40.75,68.647L40.75,69.441L40.75,70.235L39.188,70.235L37.625,70.235L37.625,71.029L37.625,71.824L33.719,71.824L29.813,71.824L29.813,72.618L29.813,73.412L31.375,73.412L32.938,73.412L32.938,74.206L32.938,75L31.375,75L29.813,75L29.813,74.206ZZ" style="fill: rgb(19, 201, 0);"/></g></g><g id="shape-ddc8b971-8ea1-8011-8001-bd988c1d96cf"><g id="fills-ddc8b971-8ea1-8011-8001-bd988c1d96cf"><path rx="0" ry="0" d="M60,74L60,73L61,73L62,73L62,74L62,75L61,75L60,75L60,74ZZ" style="fill: rgb(19, 201, 0);"/></g></g><g id="shape-ddc8b971-8ea1-8011-8001-bd988c1d96d0"><g id="fills-ddc8b971-8ea1-8011-8001-bd988c1d96d0"><path rx="0" ry="0" d="M25,73L25,72L26,72L27,72L27,73L27,74L26,74L25,74L25,73ZZ" style="fill: rgb(19, 201, 0);"/></g></g><g id="shape-ddc8b971-8ea1-8011-8001-bd988c1d96d1"><g id="fills-ddc8b971-8ea1-8011-8001-bd988c1d96d1"><path rx="0" ry="0" d="M40,73L40,72L41,72L42,72L42,73L42,74L41,74L40,74L40,73ZZ" style="fill: rgb(19, 201, 0);"/></g></g><g id="shape-ddc8b971-8ea1-8011-8001-bd988c1d96d2"><g id="fills-ddc8b971-8ea1-8011-8001-bd988c1d96d2"><path rx="0" ry="0" d="M56,73L56,72L57,72L58,72L58,73L58,74L57,74L56,74L56,73ZZ" style="fill: rgb(19, 201, 0);"/></g></g><g id="shape-ddc8b971-8ea1-8011-8001-bd988c1d96d3"><g id="fills-ddc8b971-8ea1-8011-8001-bd988c1d96d3"><path rx="0" ry="0" d="M73,73L73,72L74,72L75,72L75,73L75,74L74,74L73,74L73,73ZZ" style="fill: rgb(19, 201, 0);"/></g></g><g id="shape-ddc8b971-8ea1-8011-8001-bd988c1d96d4"><g id="fills-ddc8b971-8ea1-8011-8001-bd988c1d96d4"><path rx="0" ry="0" d="M53.5,71.25L53.5,70.5L52.75,70.5L52,70.5L52,69.75L52,69L52.75,69L53.5,69L53.5,69.75L53.5,70.5L54.25,70.5L55,70.5L55,71.25L55,72L54.25,72L53.5,72L53.5,71.25ZZ" style="fill: rgb(19, 201, 0);"/></g></g><g id="shape-ddc8b971-8ea1-8011-8001-bd988c1d96d5"><g id="fills-ddc8b971-8ea1-8011-8001-bd988c1d96d5"><path rx="0" ry="0" d="M62.813,70.233L62.813,69.467L61.25,69.467L59.688,69.467L59.688,68.7L59.688,67.933L58.125,67.933L56.563,67.933L56.563,67.167L56.563,66.4L55.781,66.4L55,66.4L55,63.333L55,60.267L55.781,60.267L56.563,60.267L56.563,59.5L56.563,58.733L57.344,58.733L58.125,58.733L58.125,56.433L58.125,54.133L58.906,54.133L59.688,54.133L59.688,53.367L59.688,52.6L60.469,52.6L61.25,52.6L61.25,51.833L61.25,51.067L62.031,51.067L62.813,51.067L62.813,50.3L62.813,49.533L64.375,49.533L65.938,49.533L65.938,48.767L65.938,48L70.625,48L75.313,48L75.313,48.767L75.313,49.533L76.094,49.533L76.875,49.533L76.875,50.3L76.875,51.067L77.656,51.067L78.438,51.067L78.438,51.833L78.438,52.6L79.219,52.6L80,52.6L80,53.51L80,54.421L78.291,54.421L76.582,54.421L76.582,53.654L76.582,52.887L75.02,52.887L73.457,52.887L73.457,52.121L73.457,51.354L70.625,51.354L67.793,51.354L67.793,52.121L67.793,52.887L66.23,52.887L64.668,52.887L64.668,53.654L64.668,54.421L63.887,54.421L63.105,54.421L63.105,55.188L63.105,55.954L62.324,55.954L61.543,55.954L61.543,57.488L61.543,59.021L60.762,59.021L59.98,59.021L59.98,60.554L59.98,62.087L59.199,62.087L58.418,62.087L58.418,63.333L58.418,64.579L59.199,64.579L59.98,64.579L59.98,65.346L59.98,66.113L61.543,66.113L63.105,66.113L63.105,67.646L63.105,69.179L63.887,69.179L64.668,69.179L64.668,70.09L64.668,71L63.74,71L62.813,71L62.813,70.233ZZ" style="fill: rgb(19, 201, 0);"/></g></g><g id="shape-ddc8b971-8ea1-8011-8001-bd988c1d96d6"><g id="fills-ddc8b971-8ea1-8011-8001-bd988c1d96d6"><path rx="0" ry="0" d="M19,63L19,62L20,62L21,62L21,63L21,64L20,64L19,64L19,63ZZ" style="fill: rgb(19, 201, 0);"/></g></g><g id="shape-ddc8b971-8ea1-8011-8001-bd988c1d96d7"><g id="fills-ddc8b971-8ea1-8011-8001-bd988c1d96d7"><path rx="0" ry="0" d="M80,63L80,62L81,62L82,62L82,63L82,64L81,64L80,64L80,63ZZ" style="fill: rgb(19, 201, 0);"/></g></g><g id="shape-ddc8b971-8ea1-8011-8001-bd988c1d96d8"><g id="fills-ddc8b971-8ea1-8011-8001-bd988c1d96d8"><path rx="0" ry="0" d="M80.316,60.158L80.316,59.316L80.158,59.316L80,59.316L80,59.158L80,59L80.158,59L80.316,59L80.316,59.158L80.316,59.316L81.158,59.316L82,59.316L82,60.158L82,61L81.158,61L80.316,61L80.316,60.158ZZ" style="fill: rgb(19, 201, 0);"/></g></g><g id="shape-ddc8b971-8ea1-8011-8001-bd988c1d96d9"><g id="fills-ddc8b971-8ea1-8011-8001-bd988c1d96d9"><path rx="0" ry="0" d="M17,55.2L17,50.4L17.786,50.4L18.571,50.4L18.571,49.6L18.571,48.8L19.357,48.8L20.143,48.8L20.143,48L20.143,47.2L20.929,47.2L21.714,47.2L21.714,46.4L21.714,45.6L22.5,45.6L23.286,45.6L23.286,44.8L23.286,44L24.071,44L24.857,44L24.857,43.2L24.857,42.4L28,42.4L31.143,42.4L31.143,40L31.143,37.6L31.929,37.6L32.714,37.6L32.714,32.8L32.714,28L33.5,28L34.286,28L34.286,26.4L34.286,24.8L35.071,24.8L35.857,24.8L35.857,24L35.857,23.2L36.643,23.2L37.429,23.2L37.429,22.4L37.429,21.6L38.214,21.6L39,21.6L39,20.8L39,20L41.357,20L43.714,20L43.714,20.8L43.714,21.6L44.5,21.6L45.286,21.6L45.286,20.8L45.286,20L46.071,20L46.857,20L46.857,20.8L46.857,21.6L50,21.6L53.143,21.6L53.143,20.8L53.143,20L53.929,20L54.714,20L54.714,20.8L54.714,21.6L55.5,21.6L56.286,21.6L56.286,20.8L56.286,20L58.643,20L61,20L61,20.8L61,21.6L61.786,21.6L62.571,21.6L62.571,22.4L62.571,23.2L63.357,23.2L64.143,23.2L64.143,24L64.143,24.8L64.929,24.8L65.714,24.8L65.714,26.4L65.714,28L66.5,28L67.286,28L67.286,32.8L67.286,37.6L68.071,37.6L68.857,37.6L68.857,40L68.857,42.4L72,42.4L75.143,42.4L75.143,43.2L75.143,44L75.929,44L76.714,44L76.714,44.8L76.714,45.6L77.5,45.6L78.286,45.6L78.286,46.4L78.286,47.2L79.071,47.2L79.857,47.2L79.857,48L79.857,48.8L80.643,48.8L81.429,48.8L81.429,49.6L81.429,50.4L82.214,50.4L83,50.4L83,51.2L83,52L82.214,52L81.429,52L81.429,51.2L81.429,50.4L80.643,50.4L79.857,50.4L79.857,49.6L79.857,48.8L79.071,48.8L78.286,48.8L78.286,48L78.286,47.2L77.5,47.2L76.714,47.2L76.714,46.4L76.714,45.6L75.929,45.6L75.143,45.6L75.143,44.8L75.143,44L72,44L68.857,44L68.857,43.2L68.857,42.4L68.071,42.4L67.286,42.4L67.286,40L67.286,37.6L66.5,37.6L65.714,37.6L65.714,32.8L65.714,28L64.929,28L64.143,28L64.143,26.4L64.143,24.8L63.357,24.8L62.571,24.8L62.571,24L62.571,23.2L61.786,23.2L61,23.2L61,22.4L61,21.6L58.643,21.6L56.286,21.6L56.286,22.4L56.286,23.2L57.071,23.2L57.857,23.2L57.857,24L57.857,24.8L58.643,24.8L59.429,24.8L59.429,25.6L59.429,26.4L60.214,26.4L61,26.4L61,27.2L61,28L61.786,28L62.571,28L62.571,34.4L62.571,40.8L61.786,40.8L61,40.8L61,41.6L61,42.4L59.429,42.4L57.857,42.4L57.857,41.6L57.857,40.8L56.286,40.8L54.714,40.8L54.714,40L54.714,39.2L50,39.2L45.286,39.2L45.286,40L45.286,40.8L43.714,40.8L42.143,40.8L42.143,41.6L42.143,42.4L40.571,42.4L39,42.4L39,35.2L39,28L39.786,28L40.571,28L40.571,27.2L40.571,26.4L41.357,26.4L42.143,26.4L42.143,25.6L42.143,24.8L42.929,24.8L43.714,24.8L43.714,23.2L43.714,21.6L41.357,21.6L39,21.6L39,22.4L39,23.2L38.214,23.2L37.429,23.2L37.429,24L37.429,24.8L36.643,24.8L35.857,24.8L35.857,26.4L35.857,28L35.071,28L34.286,28L34.286,32.8L34.286,37.6L33.5,37.6L32.714,37.6L32.714,40L32.714,42.4L31.929,42.4L31.143,42.4L31.143,43.2L31.143,44L28,44L24.857,44L24.857,44.8L24.857,45.6L24.071,45.6L23.286,45.6L23.286,46.4L23.286,47.2L22.5,47.2L21.714,47.2L21.714,48L21.714,48.8L20.929,48.8L20.143,48.8L20.143,49.6L20.143,50.4L19.357,50.4L18.571,50.4L18.571,55.2L18.571,60L17.786,60L17,60L17,55.2ZZM41.848,38.1L41.848,37.3L42.634,37.3L43.42,37.3L43.42,36.5L43.42,35.7L46.857,35.7L50.295,35.7L50.295,36.5L50.295,37.3L54.714,37.3L59.134,37.3L59.134,36.5L59.134,35.7L59.92,35.7L60.705,35.7L60.705,33.6L60.705,31.5L59.92,31.5L59.134,31.5L59.134,30.7L59.134,29.9L58.348,29.9L57.563,29.9L57.563,29.1L57.563,28.3L56.777,28.3L55.991,28.3L55.991,27.5L55.991,26.7L50.786,26.7L45.58,26.7L45.58,27.5L45.58,28.3L44.795,28.3L44.009,28.3L44.009,29.1L44.009,29.9L43.223,29.9L42.438,29.9L42.438,31.5L42.438,33.1L41.652,33.1L40.866,33.1L40.866,36L40.866,38.9L41.357,38.9L41.848,38.9L41.848,38.1ZZM48.429,24L48.429,23.2L47.643,23.2L46.857,23.2L46.857,22.4L46.857,21.6L46.071,21.6L45.286,21.6L45.286,22.4L45.286,23.2L46.071,23.2L46.857,23.2L46.857,24L46.857,24.8L47.643,24.8L48.429,24.8L48.429,24ZZM56.286,24L56.286,23.2L55.5,23.2L54.714,23.2L54.714,22.4L54.714,21.6L53.929,21.6L53.143,21.6L53.143,22.4L53.143,23.2L53.929,23.2L54.714,23.2L54.714,24L54.714,24.8L55.5,24.8L56.286,24.8L56.286,24ZZ" style="fill: rgb(19, 201, 0);"/></g></g><g id="shape-ddc8b971-8ea1-8011-8001-bd988c1d96da"><g id="fills-ddc8b971-8ea1-8011-8001-bd988c1d96da"><path rx="0" ry="0" d="M49.667,56.333L49.667,54.667L48.833,54.667L48,54.667L48,53.833L48,53L50.5,53L53,53L53,53.833L53,54.667L52.167,54.667L51.333,54.667L51.333,56.333L51.333,58L50.5,58L49.667,58L49.667,56.333ZZ" style="fill: rgb(19, 201, 0);"/></g></g><g id="shape-ddc8b971-8ea1-8011-8001-bd988c1d96db"><g id="fills-ddc8b971-8ea1-8011-8001-bd988c1d96db"><path rx="0" ry="0" d="M45,55L45,54L46,54L47,54L47,55L47,56L46,56L45,56L45,55ZZ" style="fill: rgb(19, 201, 0);"/></g></g><g id="shape-ddc8b971-8ea1-8011-8001-bd988c1d96dc"><g id="fills-ddc8b971-8ea1-8011-8001-bd988c1d96dc"><path rx="0" ry="0" d="M50,51L50,50L51,50L52,50L52,51L52,52L51,52L50,52L50,51ZZ" style="fill: rgb(19, 201, 0);"/></g></g><g id="shape-ddc8b971-8ea1-8011-8001-bd988c1d96dd"><g id="fills-ddc8b971-8ea1-8011-8001-bd988c1d96dd"><path rx="0" ry="0" d="M44,46.333L44,44.667L44.833,44.667L45.667,44.667L45.667,43.833L45.667,43L47.333,43L49,43L49,44.667L49,46.333L48.167,46.333L47.333,46.333L47.333,47.167L47.333,48L45.667,48L44,48L44,46.333ZZ" style="fill: rgb(19, 201, 0);"/></g></g><g id="shape-ddc8b971-8ea1-8011-8001-bd988c1d96de"><g id="fills-ddc8b971-8ea1-8011-8001-bd988c1d96de"><path rx="0" ry="0" d="M53,46.333L53,44.667L53.833,44.667L54.667,44.667L54.667,43.833L54.667,43L56.333,43L58,43L58,44.667L58,46.333L57.167,46.333L56.333,46.333L56.333,47.167L56.333,48L54.667,48L53,48L53,46.333ZZ" style="fill: rgb(19, 201, 0);"/></g></g></g><g id="shape-ddc8b971-8ea1-8011-8001-bd988c1d52dd" rx="0" ry="0" style="fill: rgb(0, 0, 0);"><g id="shape-ddc8b971-8ea1-8011-8001-bd988c1d96df"><g id="fills-ddc8b971-8ea1-8011-8001-bd988c1d96df"><path rx="0" ry="0" d="M64.286,71.192L64.286,70.385L63.5,70.385L62.714,70.385L62.714,68.769L62.714,67.154L61.143,67.154L59.571,67.154L59.571,66.346L59.571,65.538L58.786,65.538L58,65.538L58,63.923L58,62.308L58.786,62.308L59.571,62.308L59.571,60.692L59.571,59.077L60.357,59.077L61.143,59.077L61.143,57.462L61.143,55.846L61.929,55.846L62.714,55.846L62.714,55.038L62.714,54.231L63.5,54.231L64.286,54.231L64.286,53.423L64.286,52.615L65.857,52.615L67.429,52.615L67.429,51.808L67.429,51L70.571,51L73.714,51L73.714,51.808L73.714,52.615L75.286,52.615L76.857,52.615L76.857,53.423L76.857,54.231L78.429,54.231L80,54.231L80,56.654L80,59.077L79.214,59.077L78.429,59.077L78.429,60.692L78.429,62.308L77.643,62.308L76.857,62.308L76.857,63.115L76.857,63.923L76.071,63.923L75.286,63.923L75.286,65.538L75.286,67.154L74.5,67.154L73.714,67.154L73.714,67.962L73.714,68.769L72.929,68.769L72.143,68.769L72.143,69.577L72.143,70.385L71.357,70.385L70.571,70.385L70.571,71.192L70.571,72L67.429,72L64.286,72L64.286,71.192ZZ" style="fill: rgb(20, 217, 0);"/></g></g><g id="shape-ddc8b971-8ea1-8011-8001-bd988c1d96e0"><g id="fills-ddc8b971-8ea1-8011-8001-bd988c1d96e0"><path rx="0" ry="0" d="M31.077,69.208L31.077,68.417L28.654,68.417L26.231,68.417L26.231,67.625L26.231,66.833L25.423,66.833L24.615,66.833L24.615,65.25L24.615,63.667L23.808,63.667L23,63.667L23,60.5L23,57.333L23.808,57.333L24.615,57.333L24.615,56.542L24.615,55.75L25.423,55.75L26.231,55.75L26.231,54.958L26.231,54.167L27.038,54.167L27.846,54.167L27.846,53.375L27.846,52.583L28.654,52.583L29.462,52.583L29.462,51.792L29.462,51L32.692,51L35.923,51L35.923,51.792L35.923,52.583L37.538,52.583L39.154,52.583L39.154,54.167L39.154,55.75L39.962,55.75L40.769,55.75L40.769,57.333L40.769,58.917L41.577,58.917L42.385,58.917L42.385,59.708L42.385,60.5L43.192,60.5L44,60.5L44,62.083L44,63.667L43.192,63.667L42.385,63.667L42.385,64.458L42.385,65.25L41.577,65.25L40.769,65.25L40.769,66.042L40.769,66.833L39.962,66.833L39.154,66.833L39.154,67.625L39.154,68.417L35.923,68.417L32.692,68.417L32.692,69.208L32.692,70L31.885,70L31.077,70L31.077,69.208ZZ" style="fill: rgb(20, 217, 0);"/></g></g><g id="shape-ddc8b971-8ea1-8011-8001-bd988c1d96e1"><g id="fills-ddc8b971-8ea1-8011-8001-bd988c1d96e1"><path rx="0" ry="0" d="M40,35.75L40,32.5L40.808,32.5L41.615,32.5L41.615,30.875L41.615,29.25L42.423,29.25L43.231,29.25L43.231,28.438L43.231,27.625L44.038,27.625L44.846,27.625L44.846,26.813L44.846,26L50.5,26L56.154,26L56.154,26.813L56.154,27.625L56.962,27.625L57.769,27.625L57.769,28.438L57.769,29.25L58.577,29.25L59.385,29.25L59.385,30.063L59.385,30.875L60.192,30.875L61,30.875L61,33.313L61,35.75L60.192,35.75L59.385,35.75L59.385,36.563L59.385,37.375L54.538,37.375L49.692,37.375L49.692,36.563L49.692,35.75L46.462,35.75L43.231,35.75L43.231,36.563L43.231,37.375L42.423,37.375L41.615,37.375L41.615,38.188L41.615,39L40.808,39L40,39L40,35.75ZZ" style="fill: rgb(20, 217, 0);"/></g></g><g id="shape-ddc8b971-8ea1-8011-8001-bd988c1d96e2"><g id="fills-ddc8b971-8ea1-8011-8001-bd988c1d96e2"><path rx="0" ry="0" d="M44,18L44,17L45,17L46,17L46,18L46,19L45,19L44,19L44,18ZZ" style="fill: rgb(20, 217, 0);"/></g></g><g id="shape-ddc8b971-8ea1-8011-8001-bd988c1d96e3"><g id="fills-ddc8b971-8ea1-8011-8001-bd988c1d96e3"><path rx="0" ry="0" d="M54,18L54,17L55,17L56,17L56,18L56,19L55,19L54,19L54,18ZZ" style="fill: rgb(20, 217, 0);"/></g></g></g></g></svg>