<svg xmlns:xlink="http://www.w3.org/1999/xlink" width="24" xmlns="http://www.w3.org/2000/svg" height="24" id="screenshot-76f8d601-1d43-8064-8002-6268dea5dd07" viewBox="0 0 24 24" style="-webkit-print-color-adjust: exact;" fill="none" version="1.1"><g id="shape-76f8d601-1d43-8064-8002-6268dea5dd07" width="1em" height="1em" rx="0" ry="0" style="fill: rgb(0, 0, 0);"><g id="shape-76f8d601-1d43-8064-8002-6268deaa4f7a"><g id="fills-76f8d601-1d43-8064-8002-6268deaa4f7a"><path rx="0" ry="0" d="M13.3,17.275C13.1,17.075,13.004,16.833,13.012,16.55C13.02,16.267,13.124,16.025,13.325,15.825L16.15,13L5,13C4.717,13,4.479,12.904,4.287,12.712C4.095,12.52,3.999,12.283,4,12C4,11.717,4.096,11.479,4.288,11.287C4.48,11.095,4.717,10.999,5,11L16.15,11L13.3,8.15C13.1,7.95,13,7.712,13,7.437C13,7.162,13.1,6.924,13.3,6.725C13.5,6.525,13.738,6.425,14.013,6.425C14.288,6.425,14.526,6.525,14.725,6.725L19.3,11.3C19.4,11.4,19.471,11.508,19.513,11.625C19.555,11.742,19.576,11.867,19.575,12C19.575,12.133,19.554,12.258,19.512,12.375C19.47,12.492,19.399,12.6,19.3,12.7L14.7,17.3C14.517,17.483,14.288,17.575,14.013,17.575C13.738,17.575,13.501,17.475,13.3,17.275ZZ" style="fill: rgb(3, 0, 28); fill-opacity: 1;"/></g></g></g></svg>