<svg xmlns="http://www.w3.org/2000/svg" width="714" height="445" fill="none" style="-webkit-print-color-adjust:exact"><path d="M564.402 407.402c-3.788 2.485-7.665-3.429-3.804-5.804 3.788-2.485 7.665 3.43 3.804 5.804ZM564.402 444.402c-3.788 2.485-7.665-3.429-3.804-5.804 3.788-2.485 7.665 3.43 3.804 5.804ZM527.402 407.402c-3.788 2.485-7.665-3.429-3.804-5.804 3.788-2.485 7.665 3.43 3.804 5.804ZM527.402 444.402c-3.788 2.485-7.665-3.429-3.804-5.804 3.788-2.485 7.665 3.43 3.804 5.804ZM712.402 407.402c-3.788 2.485-7.665-3.429-3.804-5.804 3.788-2.485 7.665 3.43 3.804 5.804ZM675.402 407.402c-3.788 2.485-7.665-3.429-3.804-5.804 3.788-2.485 7.665 3.43 3.804 5.804ZM675.402 444.402c-3.788 2.485-7.665-3.429-3.804-5.804 3.788-2.485 7.665 3.43 3.804 5.804ZM638.402 407.402c-3.788 2.485-7.665-3.429-3.804-5.804 3.788-2.485 7.665 3.43 3.804 5.804ZM638.402 444.402c-3.788 2.485-7.665-3.429-3.804-5.804 3.788-2.485 7.665 3.43 3.804 5.804ZM601.402 407.402c-3.788 2.485-7.665-3.429-3.804-5.804 3.788-2.485 7.665 3.43 3.804 5.804ZM601.402 444.402c-3.788 2.485-7.665-3.429-3.804-5.804 3.788-2.485 7.665 3.43 3.804 5.804ZM707.598 221.402c-2.485-3.788 3.429-7.665 5.804-3.804 2.485 3.788-3.43 7.665-5.804 3.804ZM670.598 221.402c-2.485-3.788 3.429-7.665 5.804-3.804 2.485 3.788-3.43 7.665-5.804 3.804ZM707.598 184.402c-2.485-3.788 3.429-7.665 5.804-3.804 2.485 3.788-3.43 7.665-5.804 3.804ZM670.598 184.402c-2.485-3.788 3.429-7.665 5.804-3.804 2.485 3.788-3.43 7.665-5.804 3.804ZM707.598 369.402c-2.485-3.788 3.429-7.665 5.804-3.804 2.485 3.788-3.43 7.665-5.804 3.804ZM670.598 369.402c-2.485-3.788 3.429-7.665 5.804-3.804 2.485 3.788-3.43 7.665-5.804 3.804ZM707.598 332.402c-2.485-3.788 3.429-7.665 5.804-3.804 2.485 3.788-3.43 7.665-5.804 3.804ZM670.598 332.402c-2.485-3.788 3.429-7.665 5.804-3.804 2.485 3.788-3.43 7.665-5.804 3.804ZM707.598 295.402c-2.485-3.788 3.429-7.665 5.804-3.804 2.485 3.788-3.43 7.665-5.804 3.804ZM670.598 295.402c-2.485-3.788 3.429-7.665 5.804-3.804 2.485 3.788-3.43 7.665-5.804 3.804ZM707.598 258.402c-2.485-3.788 3.429-7.665 5.804-3.804 2.485 3.788-3.43 7.665-5.804 3.804ZM670.598 258.402c-2.485-3.788 3.429-7.665 5.804-3.804 2.485 3.788-3.43 7.665-5.804 3.804ZM149.598 37.598c3.788-2.485 7.665 3.429 3.804 5.804-3.788 2.485-7.665-3.43-3.804-5.804ZM149.598.598c3.788-2.485 7.665 3.429 3.804 5.804-3.788 2.485-7.665-3.43-3.804-5.804ZM186.598 37.598c3.788-2.485 7.665 3.429 3.804 5.804-3.788 2.485-7.665-3.43-3.804-5.804ZM186.598.598c3.788-2.485 7.665 3.429 3.804 5.804-3.788 2.485-7.665-3.43-3.804-5.804ZM1.598 37.598c3.788-2.485 7.665 3.429 3.804 5.804-3.788 2.485-7.665-3.43-3.804-5.804ZM38.598 37.598c3.788-2.485 7.665 3.429 3.804 5.804-3.788 2.485-7.665-3.43-3.804-5.804ZM38.598.598c3.788-2.485 7.665 3.429 3.804 5.804-3.788 2.485-7.665-3.43-3.804-5.804ZM75.598 37.598c3.788-2.485 7.665 3.429 3.804 5.804-3.788 2.485-7.665-3.43-3.804-5.804ZM75.598.598c3.788-2.485 7.665 3.429 3.804 5.804-3.788 2.485-7.665-3.43-3.804-5.804ZM112.598 37.598c3.788-2.485 7.665 3.429 3.804 5.804-3.788 2.485-7.665-3.43-3.804-5.804ZM112.598.598c3.788-2.485 7.665 3.429 3.804 5.804-3.788 2.485-7.665-3.43-3.804-5.804ZM6.402 223.598c2.485 3.788-3.429 7.665-5.804 3.804-2.485-3.788 3.43-7.665 5.804-3.804ZM43.402 223.598c2.485 3.788-3.429 7.665-5.804 3.804-2.485-3.788 3.43-7.665 5.804-3.804ZM6.402 260.598c2.485 3.788-3.429 7.665-5.804 3.804-2.485-3.788 3.43-7.665 5.804-3.804ZM43.402 260.598c2.485 3.788-3.429 7.665-5.804 3.804-2.485-3.788 3.43-7.665 5.804-3.804ZM6.402 75.598c2.485 3.788-3.429 7.665-5.804 3.804-2.485-3.788 3.43-7.665 5.804-3.804ZM43.402 75.598c2.485 3.788-3.429 7.665-5.804 3.804-2.485-3.788 3.43-7.665 5.804-3.804ZM6.402 112.598c2.485 3.788-3.429 7.665-5.804 3.804-2.485-3.788 3.43-7.665 5.804-3.804ZM43.402 112.598c2.485 3.788-3.429 7.665-5.804 3.804-2.485-3.788 3.43-7.665 5.804-3.804ZM6.402 149.598c2.485 3.788-3.429 7.665-5.804 3.804-2.485-3.788 3.43-7.665 5.804-3.804ZM43.402 149.598c2.485 3.788-3.429 7.665-5.804 3.804-2.485-3.788 3.43-7.665 5.804-3.804ZM6.402 186.598c2.485 3.788-3.429 7.665-5.804 3.804-2.485-3.788 3.43-7.665 5.804-3.804ZM43.402 186.598c2.485 3.788-3.429 7.665-5.804 3.804-2.485-3.788 3.43-7.665 5.804-3.804Z" style="fill:#efedff;fill-opacity:1"/><g style="fill:#000"><path d="M121.063 132h57.062V95.375h16.25V185h-16.25v-36.625h-57.062V185h-16.25V95.375h16.25V132ZM283.812 139.813c0 2.25-.395 4.687-1.187 7.312-.792 2.583-2.083 5-3.875 7.25-1.75 2.208-4.062 4.063-6.938 5.563-2.833 1.5-6.291 2.25-10.374 2.25h-29.313V146.75h29.313c2.208 0 3.916-.667 5.124-2 1.209-1.375 1.813-3.062 1.813-5.062 0-2.125-.687-3.792-2.063-5-1.333-1.209-2.958-1.813-4.874-1.813h-29.313c-2.208 0-3.917.688-5.125 2.063-1.208 1.333-1.812 3-1.812 5v22.687c0 2.167.666 3.854 2 5.063 1.374 1.208 3.062 1.812 5.062 1.812h29.188V185h-29.313c-2.25 0-4.687-.396-7.313-1.187-2.583-.792-5-2.063-7.25-3.813-2.208-1.792-4.062-4.104-5.562-6.937-1.5-2.875-2.25-6.355-2.25-10.438v-22.812c0-2.25.396-4.667 1.188-7.25.791-2.625 2.062-5.042 3.812-7.25 1.792-2.25 4.104-4.125 6.938-5.625 2.874-1.5 6.354-2.25 10.437-2.25h29.313c2.25 0 4.666.395 7.25 1.187 2.624.792 5.041 2.083 7.25 3.875 2.25 1.75 4.124 4.063 5.624 6.938 1.5 2.833 2.25 6.291 2.25 10.375ZM369.25 191.5c0 2.792-.354 5.292-1.062 7.5-.709 2.25-1.646 4.208-2.813 5.875-1.167 1.708-2.521 3.146-4.063 4.313a22.645 22.645 0 0 1-4.874 2.937 23.084 23.084 0 0 1-5.063 1.625c-1.708.375-3.333.562-4.875.562h-29.312v-16.25H346.5c2.167 0 3.792-.562 4.875-1.687 1.083-1.125 1.625-2.75 1.625-4.875v-74.062h16.25V191.5ZM346.5 185h-29.312c-2.334 0-4.834-.396-7.5-1.187-2.626-.792-5.084-2.084-7.376-3.875-2.291-1.834-4.187-4.188-5.687-7.063-1.5-2.917-2.25-6.479-2.25-10.687v-44.75h16.25v44.75c0 2.125.563 3.75 1.687 4.875 1.126 1.125 2.792 1.687 5 1.687H346.5V185ZM391.438 196.5H380l5.812-31.437h15.313l-9.687 31.437ZM473.438 185h-16.25V95.375h16.25V185ZM499.312 130.625h-11.374l5.75-31.5h15.374l-9.75 31.5ZM579.812 185h-16.25v-44.812c0-2.125-.562-3.73-1.687-4.813-1.125-1.125-2.792-1.687-5-1.687H535.75V185H519.5v-59.5c0-1.125.208-2.167.625-3.125.417-1 1-1.854 1.75-2.562a8.042 8.042 0 0 1 2.625-1.75c1-.417 2.062-.625 3.188-.625H557c2.25 0 4.667.395 7.25 1.187s5.042 2.063 7.375 3.813v-5h22c1.542 0 3.167.187 4.875.562a23.06 23.06 0 0 1 5.062 1.625 22.623 22.623 0 0 1 4.876 2.938c1.541 1.166 2.895 2.604 4.062 4.312 1.167 1.667 2.104 3.604 2.812 5.813.709 2.208 1.063 4.708 1.063 7.5V185h-16.25v-44.812c0-2.125-.542-3.73-1.625-4.813-1.042-1.125-2.667-1.687-4.875-1.687H579c.542 2 .812 4.166.812 6.5V185Z" style="fill:#efedff"/><path d="M224.562 348h-16.25v-22h-57.124v22h-16.25v-44.812c0-6.542 1.125-12.563 3.375-18.063 2.25-5.5 5.375-10.229 9.375-14.187 4-3.959 8.729-7.042 14.187-9.25 5.458-2.209 11.417-3.313 17.875-3.313h36.625c1.125 0 2.187.208 3.187.625 1 .417 1.876 1 2.626 1.75a8.058 8.058 0 0 1 1.75 2.625c.416 1 .624 2.063.624 3.187V348Zm-73.374-38.25h57.124v-35.125H179.75c-.5 0-1.562.083-3.187.25-1.584.125-3.438.479-5.563 1.063-2.083.583-4.292 1.479-6.625 2.687-2.333 1.208-4.479 2.875-6.437 5-1.959 2.125-3.584 4.792-4.875 8-1.25 3.167-1.875 7.021-1.875 11.563v6.562ZM315.188 339.812c0 1.167-.209 2.25-.626 3.25-.416 1-1 1.876-1.75 2.626-.708.708-1.562 1.27-2.562 1.687-.958.417-2 .625-3.125.625h-36.75c-2 0-4.146-.229-6.437-.688a31.339 31.339 0 0 1-6.688-2.187 38.312 38.312 0 0 1-6.438-3.875c-2.041-1.583-3.833-3.479-5.374-5.688-1.542-2.25-2.792-4.833-3.75-7.75-.917-2.916-1.376-6.208-1.376-9.874v-37.5h16.25v37.5c0 2.124.355 4.041 1.063 5.75.75 1.666 1.75 3.104 3 4.312a13.358 13.358 0 0 0 4.375 2.812c1.708.626 3.542.938 5.5.938h28.438v-51.312h16.25v59.374ZM395.75 325.188c0 2.791-.354 5.312-1.062 7.562-.709 2.208-1.646 4.167-2.813 5.875a20.045 20.045 0 0 1-4.063 4.313 24.162 24.162 0 0 1-4.874 2.874 25.476 25.476 0 0 1-5.126 1.688c-1.708.333-3.333.5-4.874.5h-44v-16.25h43.874c2.209 0 3.876-.562 5-1.688 1.126-1.124 1.688-2.75 1.688-4.874-.208-4.334-2.396-6.5-6.562-6.5H347.75c-3.583 0-6.625-.626-9.125-1.876s-4.542-2.812-6.125-4.687c-1.542-1.875-2.667-3.896-3.375-6.063-.667-2.166-1-4.187-1-6.062 0-3.625.646-6.667 1.937-9.125 1.292-2.5 2.917-4.521 4.876-6.063 1.958-1.541 4.083-2.645 6.374-3.312 2.292-.708 4.438-1.062 6.438-1.062h39.938v16.25h-39.813c-.833 0-1.5.104-2 .312-.458.167-.813.417-1.063.75a2.083 2.083 0 0 0-.374 1 7.992 7.992 0 0 0-.063 1c.042.667.167 1.188.375 1.562.208.376.458.646.75.813.333.167.688.271 1.062.313H372.938c4.166 0 7.708.75 10.624 2.25 2.917 1.5 5.271 3.395 7.063 5.687 1.792 2.25 3.083 4.708 3.875 7.375.833 2.667 1.25 5.146 1.25 7.438ZM467.5 296.688h-28.375V348h-16.437v-51.312h-21.126v-16.25h21.126v-22.063h16.437v22.063H467.5v16.25ZM494.688 266.562h-16.25v-14.687h16.25v14.687Zm0 81.438h-16.25v-67.562h16.25V348ZM585.188 348h-16.25v-37.5c0-2.125-.376-4.021-1.126-5.688-.708-1.708-1.687-3.166-2.937-4.374-1.25-1.209-2.729-2.126-4.437-2.75-1.667-.667-3.48-1-5.438-1h-28.438V348h-16.25v-59.5c0-1.125.209-2.167.626-3.125.416-1 1-1.854 1.75-2.563a8.054 8.054 0 0 1 2.624-1.75c1-.416 2.063-.624 3.188-.624h36.625c2.042 0 4.187.229 6.437.687a29.17 29.17 0 0 1 6.75 2.25c2.25 1 4.376 2.292 6.376 3.875 2.041 1.542 3.833 3.438 5.374 5.688 1.584 2.208 2.834 4.77 3.75 7.687.917 2.917 1.376 6.208 1.376 9.875V348Z" style="fill:#cda715"/></g></svg>